<svg width="120" height="120" viewBox="0 0 120 120" fill="none" xmlns="http://www.w3.org/2000/svg">
<g id="Footprint">
<path id="Vector 1" d="M46.3111 98.5546C25.465 92.9243 8.97447 98.5203 11.4524 81.8406C14.9476 72.3224 24.6246 69.8258 32.7523 65.1701C43.0718 59.2588 50.1431 51.3793 62.1926 55.9164C73.8243 60.2962 72.2259 69.2704 76.3417 79.9616C79.8475 89.0685 85.8842 98.3128 82.2039 108.194C72.5233 122.724 65.7288 108.455 46.3111 98.5546Z" stroke="#DD174E" stroke-width="10" stroke-linecap="round"/>
<path id="Vector 2" d="M42.6677 26.2308C45.263 16.3486 52.9963 9.81601 59.9406 11.6397C66.8848 13.4635 70.4103 22.953 67.8149 32.8351C65.2196 42.7173 57.4863 49.2499 50.5421 47.4262C43.5979 45.6024 40.0724 36.113 42.6677 26.2308Z" stroke="#DD174E" stroke-width="10" stroke-linecap="round"/>
<path id="Vector 3" d="M98.773 47.1284C103.275 37.9564 101.699 27.9565 95.2542 24.7931C88.809 21.6296 79.9347 26.5005 75.4328 35.6726C70.931 44.8446 72.5064 54.8445 78.9516 58.0079C85.3968 61.1714 94.2712 56.3005 98.773 47.1284Z" stroke="#DD174E" stroke-width="10" stroke-linecap="round"/>
<path id="Vector 4" d="M109.399 78.879C114.044 71.7967 113.518 63.2417 108.226 59.7708C102.933 56.2998 94.8774 59.2274 90.2328 66.3097C85.5883 73.3919 86.1137 81.947 91.4063 85.4179C96.699 88.8888 104.755 85.9612 109.399 78.879Z" stroke="#DD174E" stroke-width="10" stroke-linecap="round"/>
<path id="Vector 5" d="M13.4881 43.1548C14.6084 34.7599 20.6024 28.6331 26.876 29.4703C33.1496 30.3075 37.3273 37.7916 36.207 46.1866C35.0867 54.5815 29.0928 60.7083 22.8191 59.8711C16.5455 59.0339 12.3679 51.5498 13.4881 43.1548Z" stroke="#DD174E" stroke-width="10" stroke-linecap="round"/>
</g>
</svg>
